<?xml version="1.0" encoding="utf-8"?>
<!-- Generator: Adobe Illustrator 12.0.0, SVG Export Plug-In . SVG Version: 6.00 Build 51448)  -->
<!DOCTYPE svg PUBLIC "-//W3C//DTD SVG 1.1//EN" "http://www.w3.org/Graphics/SVG/1.1/DTD/svg11.dtd" [
	<!ENTITY ns_svg "http://www.w3.org/2000/svg">
	<!ENTITY ns_xlink "http://www.w3.org/1999/xlink">
]>
<svg  version="1.1" id="Layer_1" xmlns="&ns_svg;" xmlns:xlink="&ns_xlink;" width="457.951" height="333.326"
	 viewBox="0 0 457.951 333.326" overflow="visible" enable-background="new 0 0 457.951 333.326" xml:space="preserve">
<g>
	<path fill="#76C6EB" d="M291.216,0c-42.756,0-81.73,16.077-111.268,42.558c220.674,79.994,247.26,220.526,247.26,220.526
		c19.381-27.227,30.742-60.5,30.742-96.402C457.951,74.629,383.281,0,291.216,0L291.216,0z"/>
	<path fill="#006699" d="M128.077,132.348c-2.342,11.092-3.543,22.554-3.543,34.334c0,92.016,74.641,166.645,166.683,166.645
		c52.238,0,98.84-24.028,129.435-61.606C345.032,142.469,229.924,153.418,128.077,132.348L128.077,132.348z"/>
	<path fill="#003466" d="M420.651,271.72C336.882,152.364,226.126,168.3,124.756,157.438c-0.127,3.05-0.223,6.152-0.223,9.243
		c0,12.567,1.372,24.817,4.008,36.596C221.962,222.733,327.455,155.267,420.651,271.72L420.651,271.72z"/>
	<path fill="#495963" d="M423.605,267.974c0,0-40.078-194.91-423.605-246.488C104.517,182.673,318.497,63.079,423.605,267.974
		L423.605,267.974z"/>
	<path fill="#495963" d="M420.651,271.775C323.625,105.774,160.382,170.382,44.782,102.128
		C141.996,273.854,306.971,102.629,420.651,271.775L420.651,271.775z"/>
</g>
</svg>
